<svg xmlns="http://www.w3.org/2000/svg" width="201.128" height="100.362" viewBox="0 0 53.215 26.554">
  <path d="M10.48 9.63h32.254a.666.666 0 0 0 .664-.663v-.04c0-.365-.3-.663-.664-.663H10.48a.664.664 0 0 0-.663.663v.04c0 .365.298.663.663.663zM33.23 25.86l-5.495-3.392a1.766 1.766 0 0 0-.372-.166l6.34-12.104h-14.19l6.34 12.104c-.133.045-.26.096-.374.166l-5.494 3.392c-.62.382-.705.695-.188.695.516 0 1.447-.313 2.067-.695l3.615-2.233c.62-.383 1.635-.383 2.256 0l3.616 2.233c.62.382 1.551.695 2.068.695.516 0 .432-.313-.189-.695zM48.3 14.102c-.829-.47-2.757-.544-4.359-.544-1.832 0-3.109.185-3.78.544zm3.086-10.476L51.7.271l-.042.007c-.417.094-1.198.785-.731 4.248-.275 1.248-.593 2.698-.91 4.092zm1.49.63l.336-3.583a.617.617 0 0 0-1.226-.115l-.33 3.53-2.872 10.476h-9.393c-.289 0-.539.2-.601.482l-2.378 10.66a.614.614 0 1 0 1.2.268l2.272-10.179h8.905l2.88 10.212c.078.27.325.448.594.448l.166-.023a.616.616 0 0 0 .426-.76l-2.961-10.495 2.963-10.815zM9.273 13.558c-1.602 0-3.53.074-4.357.544h8.137c-.671-.359-1.947-.544-3.78-.544zm-6.077-4.94a593.286 593.286 0 0 1-.908-4.092c.467-3.463-.314-4.154-.73-4.248L1.514.271l.315 3.355zm13.607 17.087a.615.615 0 1 1-1.2.269L13.33 15.795H4.426L1.544 26.007a.616.616 0 0 1-1.186-.334l2.963-10.496L.357 4.362l-.019-.106L.003.673A.616.616 0 0 1 1.229.558l.331 3.53 2.87 10.476h9.394c.289 0 .537.2.6.481l2.38 10.66" fill="#100f0d"/>
</svg>