<svg xmlns="http://www.w3.org/2000/svg" width="99.358" height="157.721" viewBox="0 0 26.288 41.73">
  <path d="M25.405 24.63l-.617-4.673h-5.551l-.664 4.674h.44c-.314 4.35.72 4.797 2.213 5.472-1.37-1.074-1.567-3.358-1.392-5.472zm-3.12 9.423v6.727h2.8v.35h-6.17v-.35h2.797v-6.727h.003s-.007-1.71-.033-2.389c-.025-.678-2.034-1.212-2.827-2.048-.643-.679-1.218-1.39-1.135-2.882.1-1.796 1.2-7.148 1.2-7.148h6.16s1.1 5.352 1.2 7.148c.083 1.491-.467 2.19-1.134 2.882-.802.83-2.802 1.37-2.828 2.048-.024.678-.033 2.39-.033 2.39zM9.892 21.437s0-3.474-4.048-3.474c-4.047 0-4.047 3.474-4.047 3.474v10.215s1.662.341 4.047.341c2.35 0 4.048-.341 4.048-.341zm.689-8.767c.852 1.077 1.108 2.09 1.108 4.341v23.187c0 .846-2.617 1.532-5.845 1.532C2.616 41.73 0 41.044 0 40.198V17.011c0-2.25.255-3.264 1.106-4.341 1.079-1.361 2.513-2.064 2.55-3.086.012-.332.022-.829.03-1.347h.593v1.288c0 .015-.013 1.45-1.082 2.464l-.113.107C1.797 13.315.78 14.277.78 17.044v23.251l.836.327V17.044c0-2.408.768-3.136 2.042-4.34l.113-.109c1.327-1.257 1.343-2.996 1.343-3.07V8.237h2.888c.007.518.017 1.015.03 1.347.037 1.022 1.471 1.725 2.549 3.086zM3.706 5.985s-.002.58-.01 1.295h.582V2.842h.836V7.28H7.99c-.007-.715-.01-1.295-.01-1.295h.005v-3.63h.222V.632h-.222V0H5.114v.637h-.177v1.65h-.874V.638h.215V0h-.572v.633h-.221v1.721h.221zm5.668 15.54v9.61c-.59.094-1.9.267-3.53.267-1.65 0-2.948-.173-3.53-.266v-9.61c0-.12.062-2.97 3.53-2.97 3.49 0 3.53 2.848 3.53 2.97" fill="#941a29" fill-opacity=".8"/>
</svg>